# xmcd
#
# Track frame offsets: 
#        183
#        81503
#        100388
#        117168
#        123813
#        134735
#        139103
#        142178
#        157940
#        166573
#        179508
#        216413
#        240245
#        280075
#
# Disc length: 4257 seconds
#
# Revision: 1
# Processed by: cddbd v1.5.2PL0 Copyright (c) Steve Scherf et al.
# Submitted via: ExactAudioCopy v0.99pb4
#
DISCID=c9109f0e
DTITLE=George Gershwin - San Francisco Symphony Orchestra - An America
DTITLE=n In Paris - West Side Story - Symphonic Dances - Street Music
DYEAR=1977
DGENRE=Classical
TTITLE0=An American in Paris
TTITLE1=West Side Story: Prologue
TTITLE2=West Side Story: "Somewhere"
TTITLE3=West Side Story: Scherzo
TTITLE4=West Side Story: Mambo
TTITLE5=West Side Story: Cha-cha
TTITLE6=West Side Story: Meeting Scene
TTITLE7=West Side Story: "Cool", Fugue
TTITLE8=West Side Story: Rumble
TTITLE9=West Side Story: Finale
TTITLE10=Street Music: I
TTITLE11=Street Music: II
TTITLE12=Street Music: III
TTITLE13=Street Music: IV
EXTD=YEAR: 1977 ID3G: 0
EXTT0=
EXTT1=
EXTT2=
EXTT3=
EXTT4=
EXTT5=
EXTT6=
EXTT7=
EXTT8=
EXTT9=
EXTT10=
EXTT11=
EXTT12=
EXTT13=
PLAYORDER=
